          # Blender 4.2 3 LTS
# www.blender.org
mtllib sphere.mtl
o Sphere
v 0.000000 0.587785 -0.809017
v 0.000000 0.000000 -1.000000
v 0.000000 -0.309017 -0.951057
v 0.000000 -0.587785 -0.809017
v 0.000000 -0.951057 -0.309017
v 0.118256 0.951057 -0.285494
v 0.224936 0.809017 -0.543043
v 0.309597 0.587785 -0.747434
v 0.363954 0.309017 -0.878662
v 0.382683 0.000000 -0.923880
v 0.363954 -0.309017 -0.878662
v 0.309597 -0.587785 -0.747434
v 0.224936 -0.809017 -0.543043
v 0.118256 -0.951057 -0.285494
v 0.218508 0.951057 -0.218508
v 0.415627 0.809017 -0.415627
v 0.572061 0.587785 -0.572061
v 0.672499 0.309017 -0.672498
v 0.707107 0.000000 -0.707107
v 0.672499 -0.309017 -0.672498
v 0.572061 -0.587785 -0.572061
v 0.415627 -0.809017 -0.415627
v 0.218508 -0.951057 -0.218508
v 0.285495 0.951057 -0.118256
v 0.543043 0.809017 -0.224936
v 0.747434 0.587785 -0.309597
v 0.878662 0.309017 -0.363954
v 0.923880 0.000000 -0.382683
v 0.878662 -0.309017 -0.363954
v 0.747434 -0.587785 -0.309597
v 0.543043 -0.809017 -0.224936
v 0.285495 -0.951057 -0.118256
v 0.309017 0.951057 0.000000
v 0.587785 0.809017 0.000000
v 0.809017 0.587785 0.000000
v 0.951056 0.309017 0.000000
v 1.000000 0.000000 0.000000
v 0.951056 -0.309017 0.000000
v 0.809017 -0.587785 0.000000
v 0.587785 -0.809017 0.000000
v 0.309017 -0.951057 0.000000
v 0.285494 0.951057 0.118256
v 0.543043 0.809017 0.224936
v 0.747434 0.587785 0.309598
v 0.878662 0.309017 0.363954
v 0.923879 0.000000 0.382684
v 0.878662 -0.309017 0.363954
v 0.747434 -0.587785 0.309598
v 0.543043 -0.809017 0.224936
v 0.285494 -0.951057 0.118256
v 0.218508 0.951057 0.218508
v 0.415627 0.809017 0.415627
v 0.572061 0.587785 0.572061
v 0.672498 0.309017 0.672499
v 0.707107 0.000000 0.707107
v 0.672498 -0.309017 0.672499
v 0.572061 -0.587785 0.572061
v 0.415627 -0.809017 0.415627
v 0.218508 -0.951057 0.218508
v 0.118256 0.951057 0.285495
v 0.224935 0.809017 0.543043
v 0.309597 0.587785 0.747434
v 0.363953 0.309017 0.878662
v 0.382683 0.000000 0.923880
v 0.363953 -0.309017 0.878662
v 0.309597 -0.587785 0.747434
v 0.224935 -0.809017 0.543043
v 0.118256 -0.951057 0.285495
v -0.000000 0.951057 0.309017
v -0.000000 0.809017 0.587785
v -0.000000 0.587785 0.809017
v -0.000000 0.309017 0.951056
v -0.000000 0.000000 1.000000
v -0.000000 -0.309017 0.951056
v -0.000000 -0.587785 0.809017
v -0.000000 -0.809017 0.587785
v -0.000000 -0.951057 0.309017
v 0.000000 -1.000000 0.000000
v -0.118256 0.951057 0.285494
v -0.224936 0.809017 0.543043
v -0.309598 0.587785 0.747434
v -0.363954 0.309017 0.878661
v -0.382684 0.000000 0.923879
v -0.363954 -0.309017 0.878661
v -0.309598 -0.587785 0.747434
v -0.224936 -0.809017 0.543043
v -0.118256 -0.951057 0.285494
v 0.000000 1.000000 0.000000
v -0.218508 0.951057 0.218508
v -0.415627 0.809017 0.415627
v -0.572061 0.587785 0.572061
v -0.672499 0.309017 0.672498
v -0.707107 0.000000 0.707106
v -0.672499 -0.309017 0.672498
v -0.572061 -0.587785 0.572061
v -0.415627 -0.809017 0.415627
v -0.218508 -0.951057 0.218508
v -0.285495 0.951057 0.118256
v -0.543043 0.809017 0.224935
v -0.747434 0.587785 0.309597
v -0.878662 0.309017 0.363953
v -0.923880 0.000000 0.382683
v -0.878662 -0.309017 0.363953
v -0.747434 -0.587785 0.309597
v -0.543043 -0.809017 0.224935
v -0.285495 -0.951057 0.118256
v -0.309017 0.951057 -0.000000
v -0.587785 0.809017 -0.000000
v -0.809017 0.587785 -0.000000
v -0.951056 0.309017 -0.000000
v -1.000000 0.000000 -0.000001
v -0.951056 -0.309017 -0.000000
v -0.809017 -0.587785 -0.000000
v -0.587785 -0.809017 -0.000000
v -0.309017 -0.951057 -0.000000
v -0.285494 0.951057 -0.118256
v -0.543042 0.809017 -0.224936
v -0.747434 0.587785 -0.309598
v -0.878661 0.309017 -0.363954
v -0.923879 0.000000 -0.382684
v -0.878661 -0.309017 -0.363954
v -0.747434 -0.587785 -0.309598
v -0.543042 -0.809017 -0.224936
v -0.285494 -0.951057 -0.118256
v -0.218508 0.951057 -0.218508
v -0.415627 0.809017 -0.415627
v -0.572061 0.587785 -0.572061
v -0.672498 0.309017 -0.672499
v -0.707106 0.000000 -0.707107
v -0.672498 -0.309017 -0.672499
v -0.572061 -0.587785 -0.572061
v -0.415627 -0.809017 -0.415627
v -0.218508 -0.951057 -0.218508
v -0.118256 0.951057 -0.285495
v -0.224935 0.809017 -0.543043
v -0.309597 0.587785 -0.747434
v -0.363953 0.309017 -0.878662
v -0.382683 0.000000 -0.923880
v -0.363953 -0.309017 -0.878662
v -0.309597 -0.587785 -0.747434
v -0.224935 -0.809017 -0.543043
v -0.118256 -0.951057 -0.285495
v 0.000000 0.951057 -0.309017
v 0.000000 0.809017 -0.587785
v 0.000001 0.309017 -0.951056
v 0.000000 -0.809017 -0.587785
vn 0.0899 -0.8874 -0.4522
vn 0.1928 -0.1535 -0.9692
vn 0.1393 0.7002 -0.7002
vn 0.0311 -0.9872 -0.1564
vn 0.1745 -0.4470 -0.8773
vn 0.1745 0.4470 -0.8773
vn 0.0311 0.9872 -0.1564
vn 0.1393 -0.7002 -0.7002
vn 0.1928 0.1535 -0.9692
vn 0.0899 0.8874 -0.4522
vn 0.5490 -0.1535 -0.8216
vn 0.3966 0.7002 -0.5936
vn 0.0886 -0.9872 -0.1326
vn 0.4970 -0.4470 -0.7438
vn 0.4970 0.4470 -0.7438
vn 0.0886 0.9872 -0.1326
vn 0.3966 -0.7002 -0.5936
vn 0.5490 0.1535 -0.8216
vn 0.2561 0.8874 -0.3833
vn 0.2561 -0.8874 -0.3833
vn 0.3833 0.8874 -0.2561
vn 0.3833 -0.8874 -0.2561
vn 0.8216 -0.1535 -0.5490
vn 0.5936 0.7002 -0.3966
vn 0.1326 -0.9872 -0.0886
vn 0.7438 -0.4470 -0.4970
vn 0.7438 0.4470 -0.4970
vn 0.1326 0.9872 -0.0886
vn 0.5936 -0.7002 -0.3966
vn 0.8216 0.1535 -0.5490
vn 0.7002 -0.7002 -0.1393
vn 0.9692 0.1535 -0.1928
vn 0.4522 0.8874 -0.0899
vn 0.4522 -0.8874 -0.0899
vn 0.9692 -0.1535 -0.1928
vn 0.7002 0.7002 -0.1393
vn 0.1564 -0.9872 -0.0311
vn 0.8773 -0.4470 -0.1745
vn 0.8773 0.4470 -0.1745
vn 0.1564 0.9872 -0.0311
vn 0.8773 0.4470 0.1745
vn 0.1564 0.9872 0.0311
vn 0.7002 -0.7002 0.1393
vn 0.9692 0.1535 0.1928
vn 0.4522 0.8874 0.0899
vn 0.4522 -0.8874 0.0899
vn 0.9692 -0.1535 0.1928
vn 0.7002 0.7002 0.1393
vn 0.1564 -0.9872 0.0311
vn 0.8773 -0.4470 0.1745
vn 0.7438 -0.4470 0.4970
vn 0.7438 0.4470 0.4970
vn 0.1326 0.9872 0.0886
vn 0.5936 -0.7002 0.3966
vn 0.8216 0.1535 0.5490
vn 0.3833 0.8874 0.2561
vn 0.3833 -0.8874 0.2561
vn 0.8216 -0.1535 0.5490
vn 0.5936 0.7002 0.3966
vn 0.1326 -0.9872 0.0886
vn 0.3966 0.7002 0.5936
vn 0.0886 -0.9872 0.1326
vn 0.4970 -0.4470 0.7438
vn 0.4970 0.4470 0.7438
vn 0.0886 0.9872 0.1326
vn 0.3966 -0.7002 0.5936
vn 0.5490 0.1535 0.8216
vn 0.2561 0.8874 0.3833
vn 0.2561 -0.8874 0.3833
vn 0.5490 -0.1535 0.8216
vn 0.0899 -0.8874 0.4522
vn 0.1928 -0.1535 0.9692
vn 0.1393 0.7002 0.7002
vn 0.0311 -0.9872 0.1564
vn 0.1745 -0.4470 0.8773
vn 0.1745 0.4470 0.8773
vn 0.0311 0.9872 0.1564
vn 0.1393 -0.7002 0.7002
vn 0.1928 0.1535 0.9692
vn 0.0899 0.8874 0.4522
vn -0.1928 0.1535 0.9692
vn -0.0899 0.8874 0.4522
vn -0.0899 -0.8874 0.4522
vn -0.1928 -0.1535 0.9692
vn -0.1393 0.7002 0.7002
vn -0.0311 -0.9872 0.1564
vn -0.1745 -0.4470 0.8773
vn -0.1745 0.4470 0.8773
vn -0.0311 0.9872 0.1564
vn -0.1393 -0.7002 0.7002
vn -0.0886 0.9872 0.1326
vn -0.3966 -0.7002 0.5936
vn -0.5490 0.1535 0.8216
vn -0.2561 0.8874 0.3833
vn -0.2561 -0.8874 0.3833
vn -0.5490 -0.1535 0.8216
vn -0.3966 0.7002 0.5936
vn -0.0886 -0.9872 0.1326
vn -0.4970 -0.4470 0.7438
vn -0.4970 0.4470 0.7438
vn -0.7438 0.4470 0.4970
vn -0.1326 0.9872 0.0886
vn -0.5936 -0.7002 0.3966
vn -0.8216 0.1535 0.5490
vn -0.3833 0.8874 0.2561
vn -0.3833 -0.8874 0.2561
vn -0.8216 -0.1535 0.5490
vn -0.5936 0.7002 0.3966
vn -0.1326 -0.9872 0.0886
vn -0.7438 -0.4470 0.4970
vn -0.1564 -0.9872 0.0311
vn -0.8773 -0.4470 0.1745
vn -0.8773 0.4470 0.1745
vn -0.1564 0.9872 0.0311
vn -0.7002 -0.7002 0.1393
vn -0.9692 0.1535 0.1928
vn -0.4522 0.8874 0.0899
vn -0.4522 -0.8874 0.0899
vn -0.9692 -0.1535 0.1928
vn -0.7002 0.7002 0.1393
vn -0.9692 -0.1535 -0.1928
vn -0.7002 0.7002 -0.1393
vn -0.1564 -0.9872 -0.0311
vn -0.8773 -0.4470 -0.1745
vn -0.8773 0.4470 -0.1745
vn -0.1564 0.9872 -0.0311
vn -0.7002 -0.7002 -0.1393
vn -0.9692 0.1535 -0.1928
vn -0.4522 0.8874 -0.0899
vn -0.4522 -0.8874 -0.0899
vn -0.3833 0.8874 -0.2561
vn -0.3833 -0.8874 -0.2561
vn -0.8216 -0.1535 -0.5490
vn -0.5936 0.7002 -0.3966
vn -0.1326 -0.9872 -0.0886
vn -0.7438 -0.4470 -0.4970
vn -0.7438 0.4470 -0.4970
vn -0.1326 0.9872 -0.0886
vn -0.5936 -0.7002 -0.3966
vn -0.8216 0.1535 -0.5490
vn -0.5490 0.1535 -0.8216
vn -0.2561 0.8874 -0.3833
vn -0.2561 -0.8874 -0.3833
vn -0.5490 -0.1535 -0.8216
vn -0.3966 0.7002 -0.5936
vn -0.0886 -0.9872 -0.1326
vn -0.4970 -0.4470 -0.7438
vn -0.4970 0.4470 -0.7438
vn -0.0886 0.9872 -0.1326
vn -0.3966 -0.7002 -0.5936
vn -0.0311 0.9872 -0.1564
vn -0.1393 -0.7002 -0.7002
vn -0.1928 0.1535 -0.9692
vn -0.0899 0.8874 -0.4522
vn -0.0899 -0.8874 -0.4522
vn -0.1928 -0.1535 -0.9692
vn -0.1393 0.7002 -0.7002
vn -0.0311 -0.9872 -0.1564
vn -0.1745 -0.4470 -0.8773
vn -0.1745 0.4470 -0.8773
vt 0.750000 0.200000
vt 0.687500 0.100000
vt 0.750000 0.100000
vt 0.750000 0.500000
vt 0.687500 0.400000
vt 0.750000 0.400000
vt 0.750000 0.800000
vt 0.687500 0.700000
vt 0.750000 0.700000
vt 0.718750 0.000000
vt 0.687500 0.300000
vt 0.750000 0.300000
vt 0.750000 0.600000
vt 0.687500 0.600000
vt 0.750000 0.900000
vt 0.718750 1.000000
vt 0.687500 0.900000
vt 0.687500 0.200000
vt 0.687500 0.500000
vt 0.687500 0.800000
vt 0.625000 0.400000
vt 0.625000 0.800000
vt 0.625000 0.700000
vt 0.656250 0.000000
vt 0.625000 0.100000
vt 0.625000 0.300000
vt 0.625000 0.600000
vt 0.656250 1.000000
vt 0.625000 0.900000
vt 0.625000 0.200000
vt 0.625000 0.500000
vt 0.562500 0.800000
vt 0.562500 0.100000
vt 0.562500 0.400000
vt 0.562500 0.700000
vt 0.593750 0.000000
vt 0.562500 0.300000
vt 0.562500 0.600000
vt 0.593750 1.000000
vt 0.562500 0.900000
vt 0.562500 0.200000
vt 0.562500 0.500000
vt 0.500000 0.200000
vt 0.500000 0.500000
vt 0.500000 0.800000
vt 0.500000 0.100000
vt 0.500000 0.400000
vt 0.500000 0.700000
vt 0.531250 0.000000
vt 0.500000 0.300000
vt 0.500000 0.600000
vt 0.531250 1.000000
vt 0.500000 0.900000
vt 0.437500 0.600000
vt 0.468750 1.000000
vt 0.437500 0.900000
vt 0.437500 0.200000
vt 0.437500 0.500000
vt 0.437500 0.800000
vt 0.437500 0.100000
vt 0.437500 0.400000
vt 0.437500 0.700000
vt 0.468750 0.000000
vt 0.437500 0.300000
vt 0.375000 0.300000
vt 0.375000 0.600000
vt 0.406250 1.000000
vt 0.375000 0.900000
vt 0.375000 0.200000
vt 0.375000 0.500000
vt 0.375000 0.800000
vt 0.375000 0.100000
vt 0.375000 0.400000
vt 0.375000 0.700000
vt 0.406250 0.000000
vt 0.312500 0.700000
vt 0.343750 0.000000
vt 0.312500 0.100000
vt 0.312500 0.300000
vt 0.312500 0.600000
vt 0.343750 1.000000
vt 0.312500 0.900000
vt 0.312500 0.200000
vt 0.312500 0.500000
vt 0.312500 0.800000
vt 0.312500 0.400000
vt 0.250000 0.100000
vt 0.250000 0.400000
vt 0.250000 0.700000
vt 0.281250 0.000000
vt 0.250000 0.300000
vt 0.250000 0.600000
vt 0.281250 1.000000
vt 0.250000 0.900000
vt 0.250000 0.200000
vt 0.250000 0.500000
vt 0.250000 0.800000
vt 0.187500 0.600000
vt 0.187500 0.500000
vt 0.187500 0.800000
vt 0.187500 0.200000
vt 0.187500 0.100000
vt 0.187500 0.400000
vt 0.187500 0.700000
vt 0.218750 0.000000
vt 0.187500 0.300000
vt 0.218750 1.000000
vt 0.187500 0.900000
vt 0.156250 1.000000
vt 0.125000 0.900000
vt 0.125000 0.200000
vt 0.125000 0.500000
vt 0.125000 0.800000
vt 0.125000 0.100000
vt 0.125000 0.400000
vt 0.125000 0.700000
vt 0.156250 0.000000
vt 0.125000 0.300000
vt 0.125000 0.600000
vt 0.062500 0.600000
vt 0.093750 1.000000
vt 0.062500 0.900000
vt 0.062500 0.300000
vt 0.062500 0.200000
vt 0.062500 0.500000
vt 0.062500 0.800000
vt 0.062500 0.100000
vt 0.062500 0.400000
vt 0.062500 0.700000
vt 0.093750 0.000000
vt 0.031250 0.000000
vt 0.000000 0.100000
vt 0.000000 0.300000
vt 0.000000 0.600000
vt 0.031250 1.000000
vt 0.000000 0.900000
vt 0.000000 0.200000
vt 0.000000 0.500000
vt 0.000000 0.800000
vt 0.000000 0.400000
vt 0.000000 0.700000
vt 1.000000 0.500000
vt 0.937500 0.400000
vt 1.000000 0.400000
vt 1.000000 0.800000
vt 0.937500 0.700000
vt 1.000000 0.700000
vt 0.968750 0.000000
vt 1.000000 0.100000
vt 0.937500 0.100000
vt 0.937500 0.300000
vt 1.000000 0.300000
vt 0.937500 0.600000
vt 1.000000 0.600000
vt 1.000000 0.900000
vt 0.968750 1.000000
vt 0.937500 0.900000
vt 1.000000 0.200000
vt 0.937500 0.200000
vt 0.937500 0.500000
vt 0.937500 0.800000
vt 0.875000 0.900000
vt 0.875000 0.800000
vt 0.875000 0.100000
vt 0.875000 0.500000
vt 0.875000 0.400000
vt 0.875000 0.700000
vt 0.906250 0.000000
vt 0.875000 0.300000
vt 0.875000 0.600000
vt 0.906250 1.000000
vt 0.875000 0.200000
vt 0.812500 0.500000
vt 0.812500 0.800000
vt 0.812500 0.200000
vt 0.812500 0.100000
vt 0.812500 0.400000
vt 0.812500 0.700000
vt 0.843750 0.000000
vt 0.812500 0.300000
vt 0.812500 0.600000
vt 0.843750 1.000000
vt 0.812500 0.900000
vt 0.781250 1.000000
vt 0.781250 0.000000
s 0
f 146/1/1 14/2/1 5/3/1
f 2/4/2 11/5/2 3/6/2
f 144/7/3 8/8/3 1/9/3
f 78/10/4 5/3/4 14/2/4
f 3/6/5 12/11/5 4/12/5
f 145/13/6 8/8/6 9/14/6
f 143/15/7 88/16/7 6/17/7
f 146/1/8 12/11/8 13/18/8
f 145/13/9 10/19/9 2/4/9
f 144/7/10 6/17/10 7/20/10
f 10/19/11 20/21/11 11/5/11
f 8/8/12 16/22/12 17/23/12
f 78/24/13 14/2/13 23/25/13
f 11/5/14 21/26/14 12/11/14
f 8/8/15 18/27/15 9/14/15
f 6/17/16 88/28/16 15/29/16
f 12/11/17 22/30/17 13/18/17
f 9/14/18 19/31/18 10/19/18
f 6/17/19 16/22/19 7/20/19
f 13/18/20 23/25/20 14/2/20
f 15/29/21 25/32/21 16/22/21
f 22/30/22 32/33/22 23/25/22
f 19/31/23 29/34/23 20/21/23
f 17/23/24 25/32/24 26/35/24
f 78/36/25 23/25/25 32/33/25
f 20/21/26 30/37/26 21/26/26
f 17/23/27 27/38/27 18/27/27
f 15/29/28 88/39/28 24/40/28
f 21/26/29 31/41/29 22/30/29
f 19/31/30 27/38/30 28/42/30
f 30/37/31 40/43/31 31/41/31
f 27/38/32 37/44/32 28/42/32
f 24/40/33 34/45/33 25/32/33
f 31/41/34 41/46/34 32/33/34
f 28/42/35 38/47/35 29/34/35
f 25/32/36 35/48/36 26/35/36
f 78/49/37 32/33/37 41/46/37
f 29/34/38 39/50/38 30/37/38
f 26/35/39 36/51/39 27/38/39
f 24/40/40 88/52/40 33/53/40
f 35/48/41 45/54/41 36/51/41
f 33/53/42 88/55/42 42/56/42
f 39/50/43 49/57/43 40/43/43
f 37/44/44 45/54/44 46/58/44
f 33/53/45 43/59/45 34/45/45
f 41/46/46 49/57/46 50/60/46
f 37/44/47 47/61/47 38/47/47
f 34/45/48 44/62/48 35/48/48
f 78/63/49 41/46/49 50/60/49
f 38/47/50 48/64/50 39/50/50
f 47/61/51 57/65/51 48/64/51
f 44/62/52 54/66/52 45/54/52
f 42/56/53 88/67/53 51/68/53
f 48/64/54 58/69/54 49/57/54
f 45/54/55 55/70/55 46/58/55
f 42/56/56 52/71/56 43/59/56
f 49/57/57 59/72/57 50/60/57
f 46/58/58 56/73/58 47/61/58
f 43/59/59 53/74/59 44/62/59
f 78/75/60 50/60/60 59/72/60
f 52/71/61 62/76/61 53/74/61
f 78/77/62 59/72/62 68/78/62
f 56/73/63 66/79/63 57/65/63
f 53/74/64 63/80/64 54/66/64
f 51/68/65 88/81/65 60/82/65
f 58/69/66 66/79/66 67/83/66
f 54/66/67 64/84/67 55/70/67
f 51/68/68 61/85/68 52/71/68
f 58/69/69 68/78/69 59/72/69
f 55/70/70 65/86/70 56/73/70
f 67/83/71 77/87/71 68/78/71
f 64/84/72 74/88/72 65/86/72
f 61/85/73 71/89/73 62/76/73
f 78/90/74 68/78/74 77/87/74
f 65/86/75 75/91/75 66/79/75
f 62/76/76 72/92/76 63/80/76
f 60/82/77 88/93/77 69/94/77
f 67/83/78 75/91/78 76/95/78
f 63/80/79 73/96/79 64/84/79
f 60/82/80 70/97/80 61/85/80
f 73/96/81 82/98/81 83/99/81
f 69/94/82 80/100/82 70/97/82
f 77/87/83 86/101/83 87/102/83
f 73/96/84 84/103/84 74/88/84
f 70/97/85 81/104/85 71/89/85
f 78/105/86 77/87/86 87/102/86
f 74/88/87 85/106/87 75/91/87
f 71/89/88 82/98/88 72/92/88
f 69/94/89 88/107/89 79/108/89
f 76/95/90 85/106/90 86/101/90
f 79/108/91 88/109/91 89/110/91
f 85/106/92 96/111/92 86/101/92
f 82/98/93 93/112/93 83/99/93
f 79/108/94 90/113/94 80/100/94
f 86/101/95 97/114/95 87/102/95
f 83/99/96 94/115/96 84/103/96
f 80/100/97 91/116/97 81/104/97
f 78/117/98 87/102/98 97/114/98
f 84/103/99 95/118/99 85/106/99
f 81/104/100 92/119/100 82/98/100
f 91/116/101 101/120/101 92/119/101
f 89/110/102 88/121/102 98/122/102
f 96/111/103 104/123/103 105/124/103
f 93/112/104 101/120/104 102/125/104
f 89/110/105 99/126/105 90/113/105
f 96/111/106 106/127/106 97/114/106
f 93/112/107 103/128/107 94/115/107
f 90/113/108 100/129/108 91/116/108
f 78/130/109 97/114/109 106/127/109
f 94/115/110 104/123/110 95/118/110
f 78/131/111 106/127/111 115/132/111
f 103/128/112 113/133/112 104/123/112
f 100/129/113 110/134/113 101/120/113
f 98/122/114 88/135/114 107/136/114
f 104/123/115 114/137/115 105/124/115
f 102/125/116 110/134/116 111/138/116
f 98/122/117 108/139/117 99/126/117
f 105/124/118 115/132/118 106/127/118
f 102/125/119 112/140/119 103/128/119
f 99/126/120 109/141/120 100/129/120
f 111/142/121 121/143/121 112/144/121
f 108/145/122 118/146/122 109/147/122
f 78/148/123 115/149/123 124/150/123
f 112/144/124 122/151/124 113/152/124
f 109/147/125 119/153/125 110/154/125
f 107/155/126 88/156/126 116/157/126
f 114/158/127 122/151/127 123/159/127
f 110/154/128 120/160/128 111/142/128
f 107/155/129 117/161/129 108/145/129
f 114/158/130 124/150/130 115/149/130
f 117/161/131 125/162/131 126/163/131
f 123/159/132 133/164/132 124/150/132
f 121/143/133 129/165/133 130/166/133
f 117/161/134 127/167/134 118/146/134
f 78/168/135 124/150/135 133/164/135
f 121/143/136 131/169/136 122/151/136
f 118/146/137 128/170/137 119/153/137
f 116/157/138 88/171/138 125/162/138
f 123/159/139 131/169/139 132/172/139
f 119/153/140 129/165/140 120/160/140
f 128/170/141 138/173/141 129/165/141
f 125/162/142 135/174/142 126/163/142
f 133/164/143 141/175/143 142/176/143
f 129/165/144 139/177/144 130/166/144
f 126/163/145 136/178/145 127/167/145
f 78/179/146 133/164/146 142/176/146
f 130/166/147 140/180/147 131/169/147
f 127/167/148 137/181/148 128/170/148
f 125/162/149 88/182/149 134/183/149
f 131/169/150 141/175/150 132/172/150
f 134/183/151 88/184/151 143/15/151
f 140/180/152 146/1/152 141/175/152
f 137/181/153 2/4/153 138/173/153
f 134/183/154 144/7/154 135/174/154
f 141/175/155 5/3/155 142/176/155
f 138/173/156 3/6/156 139/177/156
f 135/174/157 1/9/157 136/178/157
f 78/185/158 142/176/158 5/3/158
f 139/177/159 4/12/159 140/180/159
f 137/181/160 1/9/160 145/13/160
f 146/1/1 13/18/1 14/2/1
f 2/4/2 10/19/2 11/5/2
f 144/7/3 7/20/3 8/8/3
f 3/6/5 11/5/5 12/11/5
f 145/13/6 1/9/6 8/8/6
f 146/1/8 4/12/8 12/11/8
f 145/13/9 9/14/9 10/19/9
f 144/7/10 143/15/10 6/17/10
f 10/19/11 19/31/11 20/21/11
f 8/8/12 7/20/12 16/22/12
f 11/5/14 20/21/14 21/26/14
f 8/8/15 17/23/15 18/27/15
f 12/11/17 21/26/17 22/30/17
f 9/14/18 18/27/18 19/31/18
f 6/17/19 15/29/19 16/22/19
f 13/18/20 22/30/20 23/25/20
f 15/29/21 24/40/21 25/32/21
f 22/30/22 31/41/22 32/33/22
f 19/31/23 28/42/23 29/34/23
f 17/23/24 16/22/24 25/32/24
f 20/21/26 29/34/26 30/37/26
f 17/23/27 26/35/27 27/38/27
f 21/26/29 30/37/29 31/41/29
f 19/31/30 18/27/30 27/38/30
f 30/37/31 39/50/31 40/43/31
f 27/38/32 36/51/32 37/44/32
f 24/40/33 33/53/33 34/45/33
f 31/41/34 40/43/34 41/46/34
f 28/42/35 37/44/35 38/47/35
f 25/32/36 34/45/36 35/48/36
f 29/34/38 38/47/38 39/50/38
f 26/35/39 35/48/39 36/51/39
f 35/48/41 44/62/41 45/54/41
f 39/50/43 48/64/43 49/57/43
f 37/44/44 36/51/44 45/54/44
f 33/53/45 42/56/45 43/59/45
f 41/46/46 40/43/46 49/57/46
f 37/44/47 46/58/47 47/61/47
f 34/45/48 43/59/48 44/62/48
f 38/47/50 47/61/50 48/64/50
f 47/61/51 56/73/51 57/65/51
f 44/62/52 53/74/52 54/66/52
f 48/64/54 57/65/54 58/69/54
f 45/54/55 54/66/55 55/70/55
f 42/56/56 51/68/56 52/71/56
f 49/57/57 58/69/57 59/72/57
f 46/58/58 55/70/58 56/73/58
f 43/59/59 52/71/59 53/74/59
f 52/71/61 61/85/61 62/76/61
f 56/73/63 65/86/63 66/79/63
f 53/74/64 62/76/64 63/80/64
f 58/69/66 57/65/66 66/79/66
f 54/66/67 63/80/67 64/84/67
f 51/68/68 60/82/68 61/85/68
f 58/69/69 67/83/69 68/78/69
f 55/70/70 64/84/70 65/86/70
f 67/83/71 76/95/71 77/87/71
f 64/84/72 73/96/72 74/88/72
f 61/85/73 70/97/73 71/89/73
f 65/86/75 74/88/75 75/91/75
f 62/76/76 71/89/76 72/92/76
f 67/83/78 66/79/78 75/91/78
f 63/80/79 72/92/79 73/96/79
f 60/82/80 69/94/80 70/97/80
f 73/96/81 72/92/81 82/98/81
f 69/94/82 79/108/82 80/100/82
f 77/87/83 76/95/83 86/101/83
f 73/96/84 83/99/84 84/103/84
f 70/97/85 80/100/85 81/104/85
f 74/88/87 84/103/87 85/106/87
f 71/89/88 81/104/88 82/98/88
f 76/95/90 75/91/90 85/106/90
f 85/106/92 95/118/92 96/111/92
f 82/98/93 92/119/93 93/112/93
f 79/108/94 89/110/94 90/113/94
f 86/101/95 96/111/95 97/114/95
f 83/99/96 93/112/96 94/115/96
f 80/100/97 90/113/97 91/116/97
f 84/103/99 94/115/99 95/118/99
f 81/104/100 91/116/100 92/119/100
f 91/116/101 100/129/101 101/120/101
f 96/111/103 95/118/103 104/123/103
f 93/112/104 92/119/104 101/120/104
f 89/110/105 98/122/105 99/126/105
f 96/111/106 105/124/106 106/127/106
f 93/112/107 102/125/107 103/128/107
f 90/113/108 99/126/108 100/129/108
f 94/115/110 103/128/110 104/123/110
f 103/128/112 112/140/112 113/133/112
f 100/129/113 109/141/113 110/134/113
f 104/123/115 113/133/115 114/137/115
f 102/125/116 101/120/116 110/134/116
f 98/122/117 107/136/117 108/139/117
f 105/124/118 114/137/118 115/132/118
f 102/125/119 111/138/119 112/140/119
f 99/126/120 108/139/120 109/141/120
f 111/142/121 120/160/121 121/143/121
f 108/145/122 117/161/122 118/146/122
f 112/144/124 121/143/124 122/151/124
f 109/147/125 118/146/125 119/153/125
f 114/158/127 113/152/127 122/151/127
f 110/154/128 119/153/128 120/160/128
f 107/155/129 116/157/129 117/161/129
f 114/158/130 123/159/130 124/150/130
f 117/161/131 116/157/131 125/162/131
f 123/159/132 132/172/132 133/164/132
f 121/143/133 120/160/133 129/165/133
f 117/161/134 126/163/134 127/167/134
f 121/143/136 130/166/136 131/169/136
f 118/146/137 127/167/137 128/170/137
f 123/159/139 122/151/139 131/169/139
f 119/153/140 128/170/140 129/165/140
f 128/170/141 137/181/141 138/173/141
f 125/162/142 134/183/142 135/174/142
f 133/164/143 132/172/143 141/175/143
f 129/165/144 138/173/144 139/177/144
f 126/163/145 135/174/145 136/178/145
f 130/166/147 139/177/147 140/180/147
f 127/167/148 136/178/148 137/181/148
f 131/169/150 140/180/150 141/175/150
f 140/180/152 4/12/152 146/1/152
f 137/181/153 145/13/153 2/4/153
f 134/183/154 143/15/154 144/7/154
f 141/175/155 146/1/155 5/3/155
f 138/173/156 2/4/156 3/6/156
f 135/174/157 144/7/157 1/9/157
f 139/177/159 3/6/159 4/12/159
f 137/181/160 136/178/160 1/9/160
